# xmcd CD database file
# Copyright (C) 1997 Ti Kan
# 
# Track frame offsets:
#     150
#     15967
#     36212
#     56002
#     75960
#     89887
#     105747
#     122392
#     139595
#     144590
#     160350
#     173122
#     189557
#     205300
#     221437
#     237652
#     254455
# 
# Disc length: 3719 seconds
# 
# Revision: 1
# Processed by: cddbd v1.4b41PL1 Copyright (c) Steve Scherf et al.
# Submitted via: DiscPlay 4.0.4
# 
DISCID=ec0e8511
DTITLE=Timothy P. Irvin - After The War
DYEAR=1900
DGENRE=
TTITLE0=1-2-3-4
TTITLE1=The Saga Of The Hideaway Motel
TTITLE2=Grade A, Gray Day For The Blues
TTITLE3=Only The Good
TTITLE4=Goin' Back To Colorado
TTITLE5=Your Memory Has 9 Lives
TTITLE6=Old John Deere Tractor
TTITLE7=I'll Be Your Yankee Doodle Dandy
TTITLE8=Lida Rose
TTITLE9=The Reverand Brigham's Confession
TTITLE10=On The Brighter Side
TTITLE11=(You're Still) Number One In My Heart
TTITLE12=I Love You
TTITLE13=Man Nor Beast
TTITLE14=I Don't Know
TTITLE15=Hey, Cowboy, Wanna Get Lucky?
TTITLE16=After The War
EXTD=
EXTT0=
EXTT1=
EXTT2=
EXTT3=
EXTT4=
EXTT5=
EXTT6=
EXTT7=
EXTT8=
EXTT9=
EXTT10=
EXTT11=
EXTT12=
EXTT13=
EXTT14=
EXTT15=
EXTT16=
PLAYORDER=
